<?xml version="1.0" standalone="no"?><!DOCTYPE svg PUBLIC "-//W3C//DTD SVG 1.1//EN" "http://www.w3.org/Graphics/SVG/1.1/DTD/svg11.dtd"><svg height="32" node-id="1" sillyvg="true" template-height="32" template-width="32" version="1.1" viewBox="0 0 32 32" width="32" xmlns="http://www.w3.org/2000/svg" xmlns:xlink="http://www.w3.org/1999/xlink"><defs node-id="100"><linearGradient gradientUnits="objectBoundingBox" id="paint8_linear_23_466" node-id="72" spreadMethod="pad" x1="13.3077" x2="11.4078" y1="12" y2="16.4092"><stop offset="0" stop-color="#553b3e"></stop><stop offset="1" stop-color="#3d2432"></stop></linearGradient><linearGradient gradientUnits="objectBoundingBox" id="paint10_linear_23_466" node-id="80" spreadMethod="pad" x1="21.8333" x2="21.8333" y1="12.4" y2="10.6"><stop offset="0.0299084" stop-color="#524049"></stop><stop offset="1" stop-color="#4a2c42"></stop></linearGradient><linearGradient gradientUnits="objectBoundingBox" id="paint11_linear_23_466" node-id="83" spreadMethod="pad" x1="6.83322" x2="6.83322" y1="10.4" y2="8.6"><stop offset="0.0299084" stop-color="#524049"></stop><stop offset="1" stop-color="#4a2c42"></stop></linearGradient><linearGradient gradientUnits="objectBoundingBox" id="paint14_linear_23_466" node-id="94" spreadMethod="pad" x1="18" x2="19.5" y1="22" y2="21.5"><stop offset="0" stop-color="#664f62" stop-opacity="0"></stop><stop offset="1" stop-color="#765d72"></stop></linearGradient><radialGradient cx="0" cy="0" fx="0" fy="0" gradientUnits="objectBoundingBox" id="paint0_radial_23_466" node-id="46" r="1" rev="11" spreadMethod="pad"><stop offset="0" stop-color="#fff478"></stop><stop offset="0.474827" stop-color="#ffb02e"></stop><stop offset="1" stop-color="#f70a8d"></stop></radialGradient><radialGradient cx="0" cy="0" fx="0" fy="0" gradientUnits="objectBoundingBox" id="paint1_radial_23_466" node-id="50" r="1" rev="10" spreadMethod="pad"><stop offset="0" stop-color="#fff478"></stop><stop offset="0.474827" stop-color="#ffb02e"></stop><stop offset="1" stop-color="#f70a8d"></stop></radialGradient><radialGradient cx="0" cy="0" fx="0" fy="0" gradientUnits="objectBoundingBox" id="paint2_radial_23_466" node-id="54" r="1" rev="9" spreadMethod="pad"><stop offset="0.787821" stop-color="#f59639" stop-opacity="0"></stop><stop offset="0.972509" stop-color="#ff7dce"></stop></radialGradient><radialGradient cx="0" cy="0" fx="0" fy="0" gradientUnits="objectBoundingBox" id="paint3_radial_23_466" node-id="57" r="1" rev="8" spreadMethod="pad"><stop offset="0.314853" stop-color="#000000" stop-opacity="0"></stop><stop offset="1" stop-color="#000000"></stop></radialGradient><radialGradient cx="0" cy="0" fx="0" fy="0" gradientUnits="objectBoundingBox" id="paint4_radial_23_466" node-id="60" r="1" rev="7" spreadMethod="pad"><stop offset="0.507903" stop-color="#7d6133" stop-opacity="0"></stop><stop offset="1" stop-color="#715b32"></stop></radialGradient><radialGradient cx="0" cy="0" fx="0" fy="0" gradientUnits="objectBoundingBox" id="paint5_radial_23_466" node-id="63" r="1" rev="6" spreadMethod="pad"><stop offset="0" stop-color="#ffb849"></stop><stop offset="1" stop-color="#ffb847" stop-opacity="0"></stop></radialGradient><radialGradient cx="0" cy="0" fx="0" fy="0" gradientUnits="objectBoundingBox" id="paint6_radial_23_466" node-id="66" r="1" rev="5" spreadMethod="pad"><stop offset="0" stop-color="#ffa64b"></stop><stop offset="0.900412" stop-color="#ffae46" stop-opacity="0"></stop></radialGradient><radialGradient cx="0" cy="0" fx="0" fy="0" gradientUnits="objectBoundingBox" id="paint7_radial_23_466" node-id="69" r="1" rev="4" spreadMethod="pad"><stop offset="0.185425" stop-color="#000000" stop-opacity="0"></stop><stop offset="1" stop-color="#000000" stop-opacity="0.4"></stop></radialGradient><radialGradient cx="0" cy="0" fx="0" fy="0" gradientUnits="objectBoundingBox" id="paint9_radial_23_466" node-id="75" r="1" rev="3" spreadMethod="pad"><stop offset="0.337213" stop-color="#4d274b"></stop><stop offset="0.628228" stop-color="#514047"></stop><stop offset="0.9999999" stop-color="#4e2553"></stop><stop offset="1" stop-color="#4a342f"></stop></radialGradient><radialGradient cx="0" cy="0" fx="0" fy="0" gradientUnits="objectBoundingBox" id="paint12_radial_23_466" node-id="86" r="1" rev="2" spreadMethod="pad"><stop offset="0" stop-color="#da2856"></stop><stop offset="0.6229" stop-color="#df2162"></stop><stop offset="0.940932" stop-color="#ff67c6"></stop></radialGradient><radialGradient cx="0" cy="0" fx="0" fy="0" gradientUnits="objectBoundingBox" id="paint13_radial_23_466" node-id="90" r="1" rev="1" spreadMethod="pad"><stop offset="0" stop-color="#3e3537"></stop><stop offset="0.313085" stop-color="#523a4f"></stop><stop offset="0.675586" stop-color="#6a5763"></stop></radialGradient><filter filterUnits="objectBoundingBox" height="12.572901" id="filter0_f_23_466" node-id="30" width="11.9282" x="18.0227" y="16.9918"><feFlood color-interpolation-filters="sRGB" flood-color="#000000" flood-opacity="0" result="BackgroundImageFix"></feFlood><feBlend color-interpolation-filters="sRGB" in="SourceGraphic" in2="BackgroundImageFix" mode="normal" result="shape"></feBlend><feGaussianBlur color-interpolation-filters="sRGB" in="shape" result="effect1_foregroundBlur_23_466" stdDeviation="1 1"></feGaussianBlur></filter><filter filterUnits="objectBoundingBox" height="8.80225" id="filter1_f_23_466" node-id="34" width="10.626499" x="20.0317" y="18.3245"><feFlood color-interpolation-filters="sRGB" flood-color="#000000" flood-opacity="0" result="BackgroundImageFix"></feFlood><feBlend color-interpolation-filters="sRGB" in="SourceGraphic" in2="BackgroundImageFix" mode="normal" result="shape"></feBlend><feGaussianBlur color-interpolation-filters="sRGB" in="shape" result="effect1_foregroundBlur_23_466" stdDeviation="1 1"></feGaussianBlur></filter><filter filterUnits="objectBoundingBox" height="6.5" id="filter2_f_23_466" node-id="38" width="4.5" x="22.5" y="17.5"><feFlood color-interpolation-filters="sRGB" flood-color="#000000" flood-opacity="0" result="BackgroundImageFix"></feFlood><feBlend color-interpolation-filters="sRGB" in="SourceGraphic" in2="BackgroundImageFix" mode="normal" result="shape"></feBlend><feGaussianBlur color-interpolation-filters="sRGB" in="shape" result="effect1_foregroundBlur_23_466" stdDeviation="0.5 0.5"></feGaussianBlur></filter><filter filterUnits="objectBoundingBox" height="4" id="filter3_f_23_466" node-id="42" width="5" x="25.5" y="20"><feFlood color-interpolation-filters="sRGB" flood-color="#000000" flood-opacity="0" result="BackgroundImageFix"></feFlood><feBlend color-interpolation-filters="sRGB" in="SourceGraphic" in2="BackgroundImageFix" mode="normal" result="shape"></feBlend><feGaussianBlur color-interpolation-filters="sRGB" in="shape" result="effect1_foregroundBlur_23_466" stdDeviation="0.5 0.5"></feGaussianBlur></filter><clipPath id="clip0_23_466" node-id="97"><path d="M 0.00 0.00 L 32.00 0.00 L 32.00 32.00 L 0.00 32.00 Z" fill="#000000" fill-rule="nonzero" node-id="237" stroke="none" target-height="32" target-width="32" target-x="0" target-y="0"></path></clipPath><mask height="10.896" id="path-12-inside-1_23_466" maskUnits="userSpaceOnUse" node-id="25" width="5.423999" x="14.7179" y="16.512001"><path d="M 16.70 17.90 L 16.00 18.20 L 15.70 18.90 L 16.00 19.60 L 17.00 20.10 L 17.20 20.40 L 17.00 20.80 L 16.00 21.30 L 15.70 22.00 L 16.00 22.70 L 17.00 23.10 L 17.20 23.50 L 17.00 23.80 L 16.00 24.30 L 15.70 25.00 L 16.00 25.70 L 16.70 26.00 L 18.50 25.30 L 19.20 23.50 L 18.70 22.00 L 19.20 20.40 L 19.00 19.50 L 17.70 18.10 L 16.70 17.90 Z" fill="#ffffff" fill-rule="evenodd" node-id="241" stroke="none" target-height="8.1" target-width="3.500001" target-x="15.7" target-y="17.9"></path></mask></defs><g clip-path="url(#clip0_23_466)" id="sillyvg_g_0" node-id="245"><path d="M 16.00 30.00 L 19.10 29.70 L 21.60 29.10 L 23.80 28.10 L 25.70 26.70 L 27.20 25.00 L 28.40 23.10 L 29.80 18.60 L 30.00 16.00 L 29.80 13.40 L 28.40 8.90 L 27.20 7.00 L 25.70 5.30 L 23.80 3.90 L 21.60 2.90 L 19.10 2.30 L 16.00 2.00 L 12.90 2.30 L 10.40 2.90 L 8.20 3.90 L 6.30 5.30 L 4.80 7.00 L 3.60 8.90 L 2.20 13.40 L 2.00 16.00 L 2.20 18.60 L 3.60 23.10 L 4.80 25.00 L 6.30 26.70 L 8.20 28.10 L 10.40 29.10 L 12.90 29.70 L 16.00 30.00 Z" fill="url(#paint0_radial_23_466)" fill-rule="nonzero" node-id="247" stroke="none" target-height="28" target-width="28" target-x="2" target-y="2"></path><path d="M 16.00 30.00 L 19.10 29.70 L 21.60 29.10 L 23.80 28.10 L 25.70 26.70 L 27.20 25.00 L 28.40 23.10 L 29.80 18.60 L 30.00 16.00 L 29.80 13.40 L 28.40 8.90 L 27.20 7.00 L 25.70 5.30 L 23.80 3.90 L 21.60 2.90 L 19.10 2.30 L 16.00 2.00 L 12.90 2.30 L 10.40 2.90 L 8.20 3.90 L 6.30 5.30 L 4.80 7.00 L 3.60 8.90 L 2.20 13.40 L 2.00 16.00 L 2.20 18.60 L 3.60 23.10 L 4.80 25.00 L 6.30 26.70 L 8.20 28.10 L 10.40 29.10 L 12.90 29.70 L 16.00 30.00 Z" fill="url(#paint1_radial_23_466)" fill-rule="nonzero" node-id="249" stroke="none" target-height="28" target-width="28" target-x="2" target-y="2"></path><path d="M 16.00 30.00 L 19.10 29.70 L 21.60 29.10 L 23.80 28.10 L 25.70 26.70 L 27.20 25.00 L 28.40 23.10 L 29.80 18.60 L 30.00 16.00 L 29.80 13.40 L 28.40 8.90 L 27.20 7.00 L 25.70 5.30 L 23.80 3.90 L 21.60 2.90 L 19.10 2.30 L 16.00 2.00 L 12.90 2.30 L 10.40 2.90 L 8.20 3.90 L 6.30 5.30 L 4.80 7.00 L 3.60 8.90 L 2.20 13.40 L 2.00 16.00 L 2.20 18.60 L 3.60 23.10 L 4.80 25.00 L 6.30 26.70 L 8.20 28.10 L 10.40 29.10 L 12.90 29.70 L 16.00 30.00 Z" fill="url(#paint2_radial_23_466)" fill-rule="nonzero" node-id="251" stroke="none" target-height="28" target-width="28" target-x="2" target-y="2"></path><path d="M 16.00 30.00 L 19.10 29.70 L 21.60 29.10 L 23.80 28.10 L 25.70 26.70 L 27.20 25.00 L 28.40 23.10 L 29.80 18.60 L 30.00 16.00 L 29.80 13.40 L 28.40 8.90 L 27.20 7.00 L 25.70 5.30 L 23.80 3.90 L 21.60 2.90 L 19.10 2.30 L 16.00 2.00 L 12.90 2.30 L 10.40 2.90 L 8.20 3.90 L 6.30 5.30 L 4.80 7.00 L 3.60 8.90 L 2.20 13.40 L 2.00 16.00 L 2.20 18.60 L 3.60 23.10 L 4.80 25.00 L 6.30 26.70 L 8.20 28.10 L 10.40 29.10 L 12.90 29.70 L 16.00 30.00 Z" fill="url(#paint3_radial_23_466)" fill-opacity="0.6" fill-rule="nonzero" node-id="253" stroke="none" target-height="28" target-width="28" target-x="2" target-y="2"></path><path d="M 16.00 30.00 L 19.10 29.70 L 21.60 29.10 L 23.80 28.10 L 25.70 26.70 L 27.20 25.00 L 28.40 23.10 L 29.80 18.60 L 30.00 16.00 L 29.80 13.40 L 28.40 8.90 L 27.20 7.00 L 25.70 5.30 L 23.80 3.90 L 21.60 2.90 L 19.10 2.30 L 16.00 2.00 L 12.90 2.30 L 10.40 2.90 L 8.20 3.90 L 6.30 5.30 L 4.80 7.00 L 3.60 8.90 L 2.20 13.40 L 2.00 16.00 L 2.20 18.60 L 3.60 23.10 L 4.80 25.00 L 6.30 26.70 L 8.20 28.10 L 10.40 29.10 L 12.90 29.70 L 16.00 30.00 Z" fill="url(#paint4_radial_23_466)" fill-rule="nonzero" node-id="255" stroke="none" target-height="28" target-width="28" target-x="2" target-y="2"></path><path d="M 16.00 30.00 L 19.10 29.70 L 21.60 29.10 L 23.80 28.10 L 25.70 26.70 L 27.20 25.00 L 28.40 23.10 L 29.80 18.60 L 30.00 16.00 L 29.80 13.40 L 28.40 8.90 L 27.20 7.00 L 25.70 5.30 L 23.80 3.90 L 21.60 2.90 L 19.10 2.30 L 16.00 2.00 L 12.90 2.30 L 10.40 2.90 L 8.20 3.90 L 6.30 5.30 L 4.80 7.00 L 3.60 8.90 L 2.20 13.40 L 2.00 16.00 L 2.20 18.60 L 3.60 23.10 L 4.80 25.00 L 6.30 26.70 L 8.20 28.10 L 10.40 29.10 L 12.90 29.70 L 16.00 30.00 Z" fill="url(#paint5_radial_23_466)" fill-rule="nonzero" node-id="257" stroke="none" target-height="28" target-width="28" target-x="2" target-y="2"></path><path d="M 16.00 30.00 L 19.10 29.70 L 21.60 29.10 L 23.80 28.10 L 25.70 26.70 L 27.20 25.00 L 28.40 23.10 L 29.80 18.60 L 30.00 16.00 L 29.80 13.40 L 28.40 8.90 L 27.20 7.00 L 25.70 5.30 L 23.80 3.90 L 21.60 2.90 L 19.10 2.30 L 16.00 2.00 L 12.90 2.30 L 10.40 2.90 L 8.20 3.90 L 6.30 5.30 L 4.80 7.00 L 3.60 8.90 L 2.20 13.40 L 2.00 16.00 L 2.20 18.60 L 3.60 23.10 L 4.80 25.00 L 6.30 26.70 L 8.20 28.10 L 10.40 29.10 L 12.90 29.70 L 16.00 30.00 Z" fill="url(#paint6_radial_23_466)" fill-rule="nonzero" node-id="259" stroke="none" target-height="28" target-width="28" target-x="2" target-y="2"></path><path d="M 16.00 30.00 L 19.10 29.70 L 21.60 29.10 L 23.80 28.10 L 25.70 26.70 L 27.20 25.00 L 28.40 23.10 L 29.80 18.60 L 30.00 16.00 L 29.80 13.40 L 28.40 8.90 L 27.20 7.00 L 25.70 5.30 L 23.80 3.90 L 21.60 2.90 L 19.10 2.30 L 16.00 2.00 L 12.90 2.30 L 10.40 2.90 L 8.20 3.90 L 6.30 5.30 L 4.80 7.00 L 3.60 8.90 L 2.20 13.40 L 2.00 16.00 L 2.20 18.60 L 3.60 23.10 L 4.80 25.00 L 6.30 26.70 L 8.20 28.10 L 10.40 29.10 L 12.90 29.70 L 16.00 30.00 Z" fill="url(#paint7_radial_23_466)" fill-rule="nonzero" node-id="261" stroke="none" target-height="28" target-width="28" target-x="2" target-y="2"></path><path d="M 14.00 17.40 L 14.70 16.10 L 15.00 14.50 L 14.80 13.30 L 13.70 11.30 L 11.70 10.20 L 9.30 10.20 L 7.30 11.30 L 6.20 13.30 L 6.00 14.50 L 6.30 16.10 L 7.00 17.40 L 8.60 16.80 L 10.50 16.50 L 12.40 16.80 L 14.00 17.40 Z" fill="#ffffff" fill-rule="nonzero" node-id="263" stroke="none" target-height="7.2" target-width="9" target-x="6" target-y="10.2"></path><path d="M 13.20 17.00 L 13.80 16.10 L 14.00 15.00 L 13.80 13.80 L 13.10 12.90 L 12.20 12.20 L 11.00 12.00 L 9.80 12.20 L 8.90 12.90 L 8.20 13.80 L 8.20 16.00 L 8.60 16.80 L 10.50 16.50 L 13.20 17.00 Z" fill="url(#paint8_linear_23_466)" fill-rule="nonzero" node-id="265" stroke="none" target-height="5" target-width="5.8" target-x="8.2" target-y="12"></path><path d="M 21.00 14.00 L 19.50 14.50 L 18.50 15.90 L 17.80 16.00 L 17.10 15.50 L 17.00 14.80 L 17.40 13.90 L 18.20 13.00 L 19.30 12.30 L 21.00 12.00 L 22.70 12.30 L 23.80 13.00 L 24.60 13.90 L 25.00 14.80 L 24.90 15.50 L 24.20 16.00 L 23.50 15.90 L 22.50 14.50 L 21.00 14.00 Z" fill="url(#paint9_radial_23_466)" fill-rule="evenodd" node-id="267" stroke="none" target-height="4" target-width="8" target-x="17" target-y="12"></path><path d="M 21.00 8.50 L 21.50 8.00 L 24.10 8.80 L 25.20 9.90 L 26.00 11.40 L 25.60 12.00 L 25.20 11.90 L 24.50 10.50 L 23.50 9.70 L 21.10 8.90 L 21.00 8.50 Z" fill="url(#paint10_linear_23_466)" fill-rule="evenodd" node-id="269" stroke="none" target-height="4" target-width="5" target-x="21" target-y="8"></path><path d="M 8.10 8.00 L 6.70 9.90 L 6.10 9.70 L 6.50 8.40 L 7.40 7.30 L 9.50 6.10 L 10.90 6.10 L 10.90 6.90 L 9.10 7.30 L 8.10 8.00 Z" fill="url(#paint11_linear_23_466)" fill-rule="evenodd" node-id="271" stroke="none" target-height="3.7999997" target-width="4.7999997" target-x="6.1" target-y="6.1"></path><path d="M 28.00 21.70 L 26.90 21.30 L 25.30 21.30 L 24.60 20.00 L 23.70 19.30 L 22.50 19.00 L 21.40 19.20 L 20.60 19.90 L 20.10 21.30 L 20.40 24.40 L 21.40 26.70 L 22.60 27.60 L 25.90 25.10 L 28.00 21.70 Z" fill="#e4694e" fill-rule="evenodd" filter="url(#filter0_f_23_466)" group-id="1" node-id="275" stroke="none" target-height="8.6" target-width="7.8999996" target-x="20.1" target-y="19"></path><path d="M 23.70 26.60 L 25.90 26.30 L 28.50 25.20 L 29.60 24.20 L 30.00 23.00 L 29.90 21.90 L 29.20 20.90 L 27.60 20.20 L 26.30 20.30 L 25.60 19.00 L 24.70 18.30 L 23.50 18.00 L 22.40 18.20 L 21.60 18.90 L 21.10 20.30 L 21.40 23.40 L 22.40 25.70 L 22.90 26.40 L 23.70 26.60 Z" fill="url(#paint12_radial_23_466)" fill-rule="nonzero" node-id="278" stroke="none" target-height="8.6" target-width="8.9" target-x="21.1" target-y="18"></path><path d="M 22.50 20.50 L 24.00 24.50 L 28.50 23.00" fill="none" filter="url(#filter1_f_23_466)" group-id="2" node-id="282" stroke="#e9228a" stroke-linecap="butt" stroke-width="1" target-height="4" target-width="6" target-x="22.5" target-y="20.5"></path><path d="M 24.50 23.00 L 26.00 20.00 L 24.50 18.50 L 23.50 20.50 L 24.50 23.00 Z" fill="#f8718f" fill-rule="nonzero" filter="url(#filter2_f_23_466)" group-id="3" node-id="287" stroke="none" target-height="4.5" target-width="2.5" target-x="23.5" target-y="18.5"></path><path d="M 26.50 23.00 L 28.00 21.00 L 29.50 22.00 L 26.50 23.00 Z" fill="#f8718f" fill-rule="nonzero" filter="url(#filter3_f_23_466)" group-id="4" node-id="292" stroke="none" target-height="2" target-width="3" target-x="26.5" target-y="21"></path><path d="M 16.70 17.90 L 16.00 18.20 L 15.70 18.90 L 16.00 19.60 L 17.00 20.10 L 17.20 20.40 L 17.00 20.80 L 16.00 21.30 L 15.70 22.00 L 16.00 22.70 L 17.00 23.10 L 17.20 23.50 L 17.00 23.80 L 16.00 24.30 L 15.70 25.00 L 16.00 25.70 L 16.70 26.00 L 18.50 25.30 L 19.20 23.50 L 18.70 22.00 L 19.20 20.40 L 19.00 19.50 L 17.70 18.10 L 16.70 17.90 Z" fill="url(#paint13_radial_23_466)" fill-rule="evenodd" node-id="295" stroke="none" target-height="8.1" target-width="3.500001" target-x="15.7" target-y="17.9"></path><path d="M 18.70 22.00 L 18.30 21.70 L 18.10 22.00 L 18.30 22.30 L 18.70 22.00 Z M 16.20 18.90 L 16.70 18.40 L 16.70 17.40 L 16.10 17.50 L 15.30 18.30 L 15.20 18.90 L 16.20 18.90 Z M 16.70 19.40 L 16.20 18.90 L 15.20 18.90 L 15.30 19.50 L 16.10 20.30 L 16.70 20.40 L 16.70 19.40 Z M 17.70 20.40 L 17.40 19.70 L 16.70 19.40 L 16.70 20.40 L 17.70 20.40 Z M 16.70 21.50 L 17.40 21.20 L 17.70 20.40 L 16.70 20.40 L 16.70 21.50 Z M 16.20 22.00 L 16.70 21.50 L 16.70 20.50 L 16.10 20.60 L 15.30 21.40 L 15.20 22.00 L 16.20 22.00 Z M 16.20 22.00 L 15.20 22.00 Z M 16.70 22.50 L 16.20 22.00 L 15.20 22.00 L 15.30 22.50 L 16.10 23.30 L 16.70 23.50 L 16.70 22.50 Z M 17.70 23.50 L 17.40 22.80 L 16.70 22.50 L 16.70 23.50 L 17.70 23.50 Z M 16.70 24.50 L 17.40 24.20 L 17.70 23.50 L 16.70 23.50 L 16.70 24.50 Z M 16.20 25.00 L 16.70 24.50 L 16.70 23.50 L 16.10 23.60 L 15.30 24.40 L 15.20 25.00 L 16.20 25.00 Z M 16.70 25.50 L 16.20 25.00 L 15.20 25.00 L 15.30 25.60 L 16.10 26.40 L 16.70 26.50 L 16.70 25.50 Z M 18.70 23.50 L 18.10 24.90 L 16.70 25.50 L 16.70 26.50 L 17.90 26.30 L 18.80 25.60 L 19.40 24.70 L 19.70 23.50 L 18.70 23.50 Z M 18.30 22.30 L 18.70 23.50 L 19.70 23.50 L 19.10 21.70 L 18.30 22.30 Z M 18.70 20.40 L 18.30 21.70 L 19.10 22.30 L 19.70 20.40 L 18.70 20.40 Z M 16.70 18.40 L 18.10 19.00 L 18.70 20.40 L 19.70 20.40 L 19.40 19.30 L 18.80 18.30 L 17.90 17.70 L 16.70 17.40 L 16.70 18.40 Z" fill="url(#paint14_linear_23_466)" fill-rule="nonzero" group-id="5" node-id="299" stroke="none" target-height="9.1" target-width="4.500001" target-x="15.2" target-y="17.4"></path></g></svg>